<svg width="380" height="67" viewBox="0 0 380 67" fill="none" xmlns="http://www.w3.org/2000/svg">
<path d="M9.97656 43.0703C9.97656 42.5911 9.80729 42.1875 9.46875 41.8594C9.13542 41.5312 8.57031 41.2344 7.77344 40.9688C6.66406 40.6302 5.85417 40.1901 5.34375 39.6484C4.83854 39.1016 4.58594 38.4089 4.58594 37.5703C4.58594 36.7161 4.83333 36.0156 5.32812 35.4688C5.82812 34.9219 6.51302 34.5964 7.38281 34.4922V32.7812H8.54688V34.5C9.42188 34.6198 10.1016 34.987 10.5859 35.6016C11.0755 36.2161 11.3203 37.0573 11.3203 38.125H9.88281C9.88281 37.3906 9.70833 36.8073 9.35938 36.375C9.01042 35.9427 8.53906 35.7266 7.94531 35.7266C7.32552 35.7266 6.85156 35.888 6.52344 36.2109C6.19531 36.5286 6.03125 36.974 6.03125 37.5469C6.03125 38.0781 6.20312 38.5026 6.54688 38.8203C6.89583 39.1328 7.46615 39.4193 8.25781 39.6797C9.05469 39.9349 9.67448 40.2188 10.1172 40.5312C10.5651 40.8385 10.8932 41.1979 11.1016 41.6094C11.3151 42.0208 11.4219 42.5026 11.4219 43.0547C11.4219 43.9349 11.1562 44.6432 10.625 45.1797C10.099 45.7161 9.35938 46.0339 8.40625 46.1328V47.625H7.25V46.1328C6.28125 46.0443 5.52083 45.7005 4.96875 45.1016C4.42188 44.4974 4.14844 43.6797 4.14844 42.6484H5.59375C5.59375 43.3724 5.78385 43.9297 6.16406 44.3203C6.54427 44.7109 7.08333 44.9062 7.78125 44.9062C8.46354 44.9062 9 44.7422 9.39062 44.4141C9.78125 44.0859 9.97656 43.638 9.97656 43.0703ZM20.6719 46H13.2188V44.9609L17.1562 40.5859C17.7396 39.9245 18.1406 39.388 18.3594 38.9766C18.5833 38.5599 18.6953 38.1302 18.6953 37.6875C18.6953 37.0938 18.5156 36.6068 18.1562 36.2266C17.7969 35.8464 17.3177 35.6562 16.7188 35.6562C16 35.6562 15.4401 35.862 15.0391 36.2734C14.6432 36.6797 14.4453 37.2474 14.4453 37.9766H13C13 36.9297 13.3359 36.0833 14.0078 35.4375C14.6849 34.7917 15.5885 34.4688 16.7188 34.4688C17.776 34.4688 18.612 34.7474 19.2266 35.3047C19.8411 35.8568 20.1484 36.5938 20.1484 37.5156C20.1484 38.6354 19.4349 39.9688 18.0078 41.5156L14.9609 44.8203H20.6719V46ZM28.3047 42.1797H29.8828V43.3594H28.3047V46H26.8516V43.3594H21.6719V42.5078L26.7656 34.625H28.3047V42.1797ZM23.3125 42.1797H26.8516V36.6016L26.6797 36.9141L23.3125 42.1797ZM31.3672 45.2422C31.3672 44.9922 31.4401 44.7839 31.5859 44.6172C31.737 44.4505 31.9609 44.3672 32.2578 44.3672C32.5547 44.3672 32.7786 44.4505 32.9297 44.6172C33.0859 44.7839 33.1641 44.9922 33.1641 45.2422C33.1641 45.4818 33.0859 45.6823 32.9297 45.8438C32.7786 46.0052 32.5547 46.0859 32.2578 46.0859C31.9609 46.0859 31.737 46.0052 31.5859 45.8438C31.4401 45.6823 31.3672 45.4818 31.3672 45.2422ZM42.5391 41.1484C42.5391 42.8411 42.25 44.099 41.6719 44.9219C41.0938 45.7448 40.1901 46.1562 38.9609 46.1562C37.7474 46.1562 36.849 45.7552 36.2656 44.9531C35.6823 44.1458 35.3802 42.9427 35.3594 41.3438V39.4141C35.3594 37.7422 35.6484 36.5 36.2266 35.6875C36.8047 34.875 37.7109 34.4688 38.9453 34.4688C40.1693 34.4688 41.0703 34.862 41.6484 35.6484C42.2266 36.4297 42.5234 37.638 42.5391 39.2734V41.1484ZM41.0938 39.1719C41.0938 37.9479 40.9219 37.0573 40.5781 36.5C40.2344 35.9375 39.6901 35.6562 38.9453 35.6562C38.2057 35.6562 37.6667 35.9349 37.3281 36.4922C36.9896 37.0495 36.8151 37.9062 36.8047 39.0625V41.375C36.8047 42.6042 36.9818 43.513 37.3359 44.1016C37.6953 44.6849 38.237 44.9766 38.9609 44.9766C39.6745 44.9766 40.2031 44.7005 40.5469 44.1484C40.8958 43.5964 41.0781 42.7266 41.0938 41.5391V39.1719ZM51.5234 41.1484C51.5234 42.8411 51.2344 44.099 50.6562 44.9219C50.0781 45.7448 49.1745 46.1562 47.9453 46.1562C46.7318 46.1562 45.8333 45.7552 45.25 44.9531C44.6667 44.1458 44.3646 42.9427 44.3438 41.3438V39.4141C44.3438 37.7422 44.6328 36.5 45.2109 35.6875C45.7891 34.875 46.6953 34.4688 47.9297 34.4688C49.1536 34.4688 50.0547 34.862 50.6328 35.6484C51.2109 36.4297 51.5078 37.638 51.5234 39.2734V41.1484ZM50.0781 39.1719C50.0781 37.9479 49.9062 37.0573 49.5625 36.5C49.2188 35.9375 48.6745 35.6562 47.9297 35.6562C47.1901 35.6562 46.651 35.9349 46.3125 36.4922C45.974 37.0495 45.7995 37.9062 45.7891 39.0625V41.375C45.7891 42.6042 45.9661 43.513 46.3203 44.1016C46.6797 44.6849 47.2214 44.9766 47.9453 44.9766C48.6589 44.9766 49.1875 44.7005 49.5312 44.1484C49.8802 43.5964 50.0625 42.7266 50.0781 41.5391V39.1719ZM59.4531 35.5V37.5469H61.0312V38.6641H59.4531V43.9062C59.4531 44.2448 59.5234 44.5 59.6641 44.6719C59.8047 44.8385 60.0443 44.9219 60.3828 44.9219C60.5495 44.9219 60.7786 44.8906 61.0703 44.8281V46C60.6901 46.1042 60.3203 46.1562 59.9609 46.1562C59.3151 46.1562 58.8281 45.9609 58.5 45.5703C58.1719 45.1797 58.0078 44.625 58.0078 43.9062V38.6641H56.4688V37.5469H58.0078V35.5H59.4531ZM62.1875 41.6953C62.1875 40.8672 62.349 40.1224 62.6719 39.4609C63 38.7995 63.4531 38.2891 64.0312 37.9297C64.6146 37.5703 65.2786 37.3906 66.0234 37.3906C67.1745 37.3906 68.1042 37.7891 68.8125 38.5859C69.526 39.3828 69.8828 40.4427 69.8828 41.7656V41.8672C69.8828 42.6901 69.724 43.4297 69.4062 44.0859C69.0938 44.737 68.6432 45.2448 68.0547 45.6094C67.4714 45.974 66.7995 46.1562 66.0391 46.1562C64.8932 46.1562 63.9635 45.7578 63.25 44.9609C62.5417 44.1641 62.1875 43.1094 62.1875 41.7969V41.6953ZM63.6406 41.8672C63.6406 42.8047 63.8568 43.5573 64.2891 44.125C64.7266 44.6927 65.3099 44.9766 66.0391 44.9766C66.7734 44.9766 67.3568 44.6901 67.7891 44.1172C68.2214 43.5391 68.4375 42.7318 68.4375 41.6953C68.4375 40.7682 68.2161 40.0182 67.7734 39.4453C67.3359 38.8672 66.7526 38.5781 66.0234 38.5781C65.3099 38.5781 64.7344 38.862 64.2969 39.4297C63.8594 39.9974 63.6406 40.8099 63.6406 41.8672ZM81.2578 43.0703C81.2578 42.5911 81.0885 42.1875 80.75 41.8594C80.4167 41.5312 79.8516 41.2344 79.0547 40.9688C77.9453 40.6302 77.1354 40.1901 76.625 39.6484C76.1198 39.1016 75.8672 38.4089 75.8672 37.5703C75.8672 36.7161 76.1146 36.0156 76.6094 35.4688C77.1094 34.9219 77.7943 34.5964 78.6641 34.4922V32.7812H79.8281V34.5C80.7031 34.6198 81.3828 34.987 81.8672 35.6016C82.3568 36.2161 82.6016 37.0573 82.6016 38.125H81.1641C81.1641 37.3906 80.9896 36.8073 80.6406 36.375C80.2917 35.9427 79.8203 35.7266 79.2266 35.7266C78.6068 35.7266 78.1328 35.888 77.8047 36.2109C77.4766 36.5286 77.3125 36.974 77.3125 37.5469C77.3125 38.0781 77.4844 38.5026 77.8281 38.8203C78.1771 39.1328 78.7474 39.4193 79.5391 39.6797C80.3359 39.9349 80.9557 40.2188 81.3984 40.5312C81.8464 40.8385 82.1745 41.1979 82.3828 41.6094C82.5964 42.0208 82.7031 42.5026 82.7031 43.0547C82.7031 43.9349 82.4375 44.6432 81.9062 45.1797C81.3802 45.7161 80.6406 46.0339 79.6875 46.1328V47.625H78.5312V46.1328C77.5625 46.0443 76.8021 45.7005 76.25 45.1016C75.7031 44.4974 75.4297 43.6797 75.4297 42.6484H76.875C76.875 43.3724 77.0651 43.9297 77.4453 44.3203C77.8255 44.7109 78.3646 44.9062 79.0625 44.9062C79.7448 44.9062 80.2812 44.7422 80.6719 44.4141C81.0625 44.0859 81.2578 43.638 81.2578 43.0703ZM90.1719 34.6172V35.8438H89.9062C88.7812 35.8646 87.8854 36.1979 87.2188 36.8438C86.5521 37.4896 86.1667 38.3984 86.0625 39.5703C86.6615 38.8828 87.4792 38.5391 88.5156 38.5391C89.5052 38.5391 90.2943 38.888 90.8828 39.5859C91.4766 40.2839 91.7734 41.1849 91.7734 42.2891C91.7734 43.4609 91.4531 44.3984 90.8125 45.1016C90.1771 45.8047 89.3229 46.1562 88.25 46.1562C87.1615 46.1562 86.2786 45.7396 85.6016 44.9062C84.9245 44.0677 84.5859 42.9896 84.5859 41.6719V41.1172C84.5859 39.0234 85.0312 37.4245 85.9219 36.3203C86.8177 35.2109 88.1484 34.6432 89.9141 34.6172H90.1719ZM88.2734 39.7422C87.7786 39.7422 87.3229 39.8906 86.9062 40.1875C86.4896 40.4844 86.2005 40.8568 86.0391 41.3047V41.8359C86.0391 42.7734 86.25 43.5286 86.6719 44.1016C87.0938 44.6745 87.6198 44.9609 88.25 44.9609C88.901 44.9609 89.4115 44.7214 89.7812 44.2422C90.1562 43.763 90.3438 43.1354 90.3438 42.3594C90.3438 41.5781 90.1536 40.9479 89.7734 40.4688C89.3984 39.9844 88.8984 39.7422 88.2734 39.7422ZM99.5859 42.1797H101.164V43.3594H99.5859V46H98.1328V43.3594H92.9531V42.5078L98.0469 34.625H99.5859V42.1797ZM94.5938 42.1797H98.1328V36.6016L97.9609 36.9141L94.5938 42.1797ZM102.648 45.2422C102.648 44.9922 102.721 44.7839 102.867 44.6172C103.018 44.4505 103.242 44.3672 103.539 44.3672C103.836 44.3672 104.06 44.4505 104.211 44.6172C104.367 44.7839 104.445 44.9922 104.445 45.2422C104.445 45.4818 104.367 45.6823 104.211 45.8438C104.06 46.0052 103.836 46.0859 103.539 46.0859C103.242 46.0859 103.018 46.0052 102.867 45.8438C102.721 45.6823 102.648 45.4818 102.648 45.2422ZM113.82 41.1484C113.82 42.8411 113.531 44.099 112.953 44.9219C112.375 45.7448 111.471 46.1562 110.242 46.1562C109.029 46.1562 108.13 45.7552 107.547 44.9531C106.964 44.1458 106.661 42.9427 106.641 41.3438V39.4141C106.641 37.7422 106.93 36.5 107.508 35.6875C108.086 34.875 108.992 34.4688 110.227 34.4688C111.451 34.4688 112.352 34.862 112.93 35.6484C113.508 36.4297 113.805 37.638 113.82 39.2734V41.1484ZM112.375 39.1719C112.375 37.9479 112.203 37.0573 111.859 36.5C111.516 35.9375 110.971 35.6562 110.227 35.6562C109.487 35.6562 108.948 35.9349 108.609 36.4922C108.271 37.0495 108.096 37.9062 108.086 39.0625V41.375C108.086 42.6042 108.263 43.513 108.617 44.1016C108.977 44.6849 109.518 44.9766 110.242 44.9766C110.956 44.9766 111.484 44.7005 111.828 44.1484C112.177 43.5964 112.359 42.7266 112.375 41.5391V39.1719ZM122.805 41.1484C122.805 42.8411 122.516 44.099 121.938 44.9219C121.359 45.7448 120.456 46.1562 119.227 46.1562C118.013 46.1562 117.115 45.7552 116.531 44.9531C115.948 44.1458 115.646 42.9427 115.625 41.3438V39.4141C115.625 37.7422 115.914 36.5 116.492 35.6875C117.07 34.875 117.977 34.4688 119.211 34.4688C120.435 34.4688 121.336 34.862 121.914 35.6484C122.492 36.4297 122.789 37.638 122.805 39.2734V41.1484ZM121.359 39.1719C121.359 37.9479 121.188 37.0573 120.844 36.5C120.5 35.9375 119.956 35.6562 119.211 35.6562C118.471 35.6562 117.932 35.9349 117.594 36.4922C117.255 37.0495 117.081 37.9062 117.07 39.0625V41.375C117.07 42.6042 117.247 43.513 117.602 44.1016C117.961 44.6849 118.503 44.9766 119.227 44.9766C119.94 44.9766 120.469 44.7005 120.812 44.1484C121.161 43.5964 121.344 42.7266 121.359 41.5391V39.1719Z" fill="#B45F4D"/>
<path d="M6.92139 15.3047C6.92139 15.0557 6.88232 14.8359 6.8042 14.6455C6.73096 14.4502 6.59912 14.2744 6.40869 14.1182C6.22314 13.9619 5.96436 13.813 5.63232 13.6714C5.30518 13.5298 4.89014 13.3857 4.38721 13.2393C3.85986 13.083 3.38379 12.9097 2.95898 12.7192C2.53418 12.5239 2.17041 12.3018 1.86768 12.0527C1.56494 11.8037 1.33301 11.5181 1.17188 11.1958C1.01074 10.8735 0.930176 10.5049 0.930176 10.0898C0.930176 9.6748 1.01562 9.2915 1.18652 8.93994C1.35742 8.58838 1.60156 8.2832 1.91895 8.02441C2.24121 7.76074 2.62451 7.55566 3.06885 7.40918C3.51318 7.2627 4.00879 7.18945 4.55566 7.18945C5.35645 7.18945 6.03516 7.34326 6.5918 7.65088C7.15332 7.95361 7.58057 8.35156 7.87354 8.84473C8.1665 9.33301 8.31299 9.85547 8.31299 10.4121H6.90674C6.90674 10.0117 6.82129 9.65771 6.65039 9.3501C6.47949 9.0376 6.2207 8.79346 5.87402 8.61768C5.52734 8.43701 5.08789 8.34668 4.55566 8.34668C4.05273 8.34668 3.6377 8.42236 3.31055 8.57373C2.9834 8.7251 2.73926 8.93018 2.57812 9.18896C2.42188 9.44775 2.34375 9.74316 2.34375 10.0752C2.34375 10.2998 2.39014 10.5049 2.48291 10.6904C2.58057 10.8711 2.72949 11.0396 2.92969 11.1958C3.13477 11.3521 3.39355 11.4961 3.70605 11.6279C4.02344 11.7598 4.40186 11.8867 4.84131 12.0088C5.44678 12.1797 5.96924 12.3701 6.40869 12.5801C6.84814 12.79 7.20947 13.0269 7.49268 13.2905C7.78076 13.5493 7.99316 13.8447 8.12988 14.1768C8.27148 14.5039 8.34229 14.875 8.34229 15.29C8.34229 15.7246 8.25439 16.1177 8.07861 16.4692C7.90283 16.8208 7.65137 17.1211 7.32422 17.3701C6.99707 17.6191 6.604 17.812 6.14502 17.9487C5.69092 18.0806 5.18311 18.1465 4.62158 18.1465C4.12842 18.1465 3.64258 18.0781 3.16406 17.9414C2.69043 17.8047 2.2583 17.5996 1.86768 17.3262C1.48193 17.0527 1.17188 16.7158 0.9375 16.3154C0.708008 15.9102 0.593262 15.4414 0.593262 14.9092H1.99951C1.99951 15.2754 2.07031 15.5903 2.21191 15.854C2.35352 16.1128 2.54639 16.3276 2.79053 16.4985C3.03955 16.6694 3.32031 16.7964 3.63281 16.8794C3.9502 16.9575 4.27979 16.9966 4.62158 16.9966C5.11475 16.9966 5.53223 16.9282 5.87402 16.7915C6.21582 16.6548 6.47461 16.4595 6.65039 16.2056C6.83105 15.9517 6.92139 15.6514 6.92139 15.3047ZM17.1094 11.9209V13.0708H11.3379V11.9209H17.1094ZM11.5576 7.33594V18H10.144V7.33594H11.5576ZM18.3398 7.33594V18H16.9336V7.33594H18.3398ZM24.9316 8.28076L21.4014 18H19.9585L24.0234 7.33594H24.9536L24.9316 8.28076ZM27.8906 18L24.353 8.28076L24.3311 7.33594H25.2612L29.3408 18H27.8906ZM27.7075 14.0522V15.2095H21.7163V14.0522H27.7075ZM31.2158 7.33594H32.5854L36.0791 16.0298L39.5654 7.33594H40.9424L36.6064 18H35.5371L31.2158 7.33594ZM30.769 7.33594H31.9775L32.1753 13.8398V18H30.769V7.33594ZM40.1733 7.33594H41.3818V18H39.9756V13.8398L40.1733 7.33594ZM47.7979 13.8179H44.9487V12.668H47.7979C48.3496 12.668 48.7964 12.5801 49.1382 12.4043C49.48 12.2285 49.729 11.9844 49.8853 11.6719C50.0464 11.3594 50.127 11.0029 50.127 10.6025C50.127 10.2363 50.0464 9.89209 49.8853 9.56982C49.729 9.24756 49.48 8.98877 49.1382 8.79346C48.7964 8.59326 48.3496 8.49316 47.7979 8.49316H45.2783V18H43.8647V7.33594H47.7979C48.6035 7.33594 49.2847 7.4751 49.8413 7.75342C50.3979 8.03174 50.8203 8.41748 51.1084 8.91064C51.3965 9.39893 51.5405 9.95801 51.5405 10.5879C51.5405 11.2715 51.3965 11.855 51.1084 12.3384C50.8203 12.8218 50.3979 13.1904 49.8413 13.4443C49.2847 13.6934 48.6035 13.8179 47.7979 13.8179ZM61.5381 12.3311V13.0049C61.5381 13.8057 61.438 14.5234 61.2378 15.1582C61.0376 15.793 60.7495 16.3325 60.3735 16.7769C59.9976 17.2212 59.5459 17.5605 59.0186 17.7949C58.4961 18.0293 57.9102 18.1465 57.2607 18.1465C56.6309 18.1465 56.0522 18.0293 55.5249 17.7949C55.0024 17.5605 54.5483 17.2212 54.1626 16.7769C53.7817 16.3325 53.4863 15.793 53.2764 15.1582C53.0664 14.5234 52.9614 13.8057 52.9614 13.0049V12.3311C52.9614 11.5303 53.064 10.8149 53.269 10.1851C53.479 9.55029 53.7744 9.01074 54.1553 8.56641C54.5361 8.11719 54.9878 7.77539 55.5103 7.54102C56.0376 7.30664 56.6162 7.18945 57.2461 7.18945C57.8955 7.18945 58.4814 7.30664 59.0039 7.54102C59.5312 7.77539 59.9829 8.11719 60.3589 8.56641C60.7397 9.01074 61.0303 9.55029 61.2305 10.1851C61.4355 10.8149 61.5381 11.5303 61.5381 12.3311ZM60.1392 13.0049V12.3164C60.1392 11.6816 60.0732 11.1201 59.9414 10.6318C59.8145 10.1436 59.6265 9.7334 59.3774 9.40137C59.1284 9.06934 58.8232 8.81787 58.4619 8.64697C58.1055 8.47607 57.7002 8.39062 57.2461 8.39062C56.8066 8.39062 56.4087 8.47607 56.0522 8.64697C55.7007 8.81787 55.3979 9.06934 55.144 9.40137C54.895 9.7334 54.7021 10.1436 54.5654 10.6318C54.4287 11.1201 54.3604 11.6816 54.3604 12.3164V13.0049C54.3604 13.6445 54.4287 14.2109 54.5654 14.7041C54.7021 15.1924 54.8975 15.605 55.1514 15.9419C55.4102 16.2739 55.7153 16.5254 56.0669 16.6963C56.4233 16.8672 56.8213 16.9526 57.2607 16.9526C57.7197 16.9526 58.1274 16.8672 58.4839 16.6963C58.8403 16.5254 59.1406 16.2739 59.3848 15.9419C59.6338 15.605 59.8218 15.1924 59.9487 14.7041C60.0757 14.2109 60.1392 13.6445 60.1392 13.0049ZM71.8652 12.3311V13.0049C71.8652 13.8057 71.7651 14.5234 71.5649 15.1582C71.3647 15.793 71.0767 16.3325 70.7007 16.7769C70.3247 17.2212 69.873 17.5605 69.3457 17.7949C68.8232 18.0293 68.2373 18.1465 67.5879 18.1465C66.958 18.1465 66.3794 18.0293 65.8521 17.7949C65.3296 17.5605 64.8755 17.2212 64.4897 16.7769C64.1089 16.3325 63.8135 15.793 63.6035 15.1582C63.3936 14.5234 63.2886 13.8057 63.2886 13.0049V12.3311C63.2886 11.5303 63.3911 10.8149 63.5962 10.1851C63.8062 9.55029 64.1016 9.01074 64.4824 8.56641C64.8633 8.11719 65.3149 7.77539 65.8374 7.54102C66.3647 7.30664 66.9434 7.18945 67.5732 7.18945C68.2227 7.18945 68.8086 7.30664 69.3311 7.54102C69.8584 7.77539 70.3101 8.11719 70.686 8.56641C71.0669 9.01074 71.3574 9.55029 71.5576 10.1851C71.7627 10.8149 71.8652 11.5303 71.8652 12.3311ZM70.4663 13.0049V12.3164C70.4663 11.6816 70.4004 11.1201 70.2686 10.6318C70.1416 10.1436 69.9536 9.7334 69.7046 9.40137C69.4556 9.06934 69.1504 8.81787 68.7891 8.64697C68.4326 8.47607 68.0273 8.39062 67.5732 8.39062C67.1338 8.39062 66.7358 8.47607 66.3794 8.64697C66.0278 8.81787 65.7251 9.06934 65.4712 9.40137C65.2222 9.7334 65.0293 10.1436 64.8926 10.6318C64.7559 11.1201 64.6875 11.6816 64.6875 12.3164V13.0049C64.6875 13.6445 64.7559 14.2109 64.8926 14.7041C65.0293 15.1924 65.2246 15.605 65.4785 15.9419C65.7373 16.2739 66.0425 16.5254 66.394 16.6963C66.7505 16.8672 67.1484 16.9526 67.5879 16.9526C68.0469 16.9526 68.4546 16.8672 68.811 16.6963C69.1675 16.5254 69.4678 16.2739 69.7119 15.9419C69.9609 15.605 70.1489 15.1924 70.2759 14.7041C70.4028 14.2109 70.4663 13.6445 70.4663 13.0049Z" fill="#B45F4D"/>
</svg>
