<svg width="380" height="67" viewBox="0 0 380 67" fill="none" xmlns="http://www.w3.org/2000/svg">
<path d="M8.11719 43.0703C8.11719 42.5911 7.94792 42.1875 7.60938 41.8594C7.27604 41.5312 6.71094 41.2344 5.91406 40.9688C4.80469 40.6302 3.99479 40.1901 3.48438 39.6484C2.97917 39.1016 2.72656 38.4089 2.72656 37.5703C2.72656 36.7161 2.97396 36.0156 3.46875 35.4688C3.96875 34.9219 4.65365 34.5964 5.52344 34.4922V32.7812H6.6875V34.5C7.5625 34.6198 8.24219 34.987 8.72656 35.6016C9.21615 36.2161 9.46094 37.0573 9.46094 38.125H8.02344C8.02344 37.3906 7.84896 36.8073 7.5 36.375C7.15104 35.9427 6.67969 35.7266 6.08594 35.7266C5.46615 35.7266 4.99219 35.888 4.66406 36.2109C4.33594 36.5286 4.17188 36.974 4.17188 37.5469C4.17188 38.0781 4.34375 38.5026 4.6875 38.8203C5.03646 39.1328 5.60677 39.4193 6.39844 39.6797C7.19531 39.9349 7.8151 40.2188 8.25781 40.5312C8.70573 40.8385 9.03385 41.1979 9.24219 41.6094C9.45573 42.0208 9.5625 42.5026 9.5625 43.0547C9.5625 43.9349 9.29688 44.6432 8.76562 45.1797C8.23958 45.7161 7.5 46.0339 6.54688 46.1328V47.625H5.39062V46.1328C4.42188 46.0443 3.66146 45.7005 3.10938 45.1016C2.5625 44.4974 2.28906 43.6797 2.28906 42.6484H3.73438C3.73438 43.3724 3.92448 43.9297 4.30469 44.3203C4.6849 44.7109 5.22396 44.9062 5.92188 44.9062C6.60417 44.9062 7.14062 44.7422 7.53125 44.4141C7.92188 44.0859 8.11719 43.638 8.11719 43.0703ZM17.4609 42.1797H19.0391V43.3594H17.4609V46H16.0078V43.3594H10.8281V42.5078L15.9219 34.625H17.4609V42.1797ZM12.4688 42.1797H16.0078V36.6016L15.8359 36.9141L12.4688 42.1797ZM25.8828 41C25.5807 41.3594 25.2188 41.6484 24.7969 41.8672C24.3802 42.0859 23.9219 42.1953 23.4219 42.1953C22.7656 42.1953 22.1927 42.0339 21.7031 41.7109C21.2188 41.388 20.8438 40.9349 20.5781 40.3516C20.3125 39.763 20.1797 39.1146 20.1797 38.4062C20.1797 37.6458 20.3229 36.9609 20.6094 36.3516C20.901 35.7422 21.3125 35.276 21.8438 34.9531C22.375 34.6302 22.9948 34.4688 23.7031 34.4688C24.8281 34.4688 25.7135 34.8906 26.3594 35.7344C27.0104 36.5729 27.3359 37.7188 27.3359 39.1719V39.5938C27.3359 41.8073 26.8984 43.4245 26.0234 44.4453C25.1484 45.4609 23.8281 45.9818 22.0625 46.0078H21.7812V44.7891H22.0859C23.2786 44.7682 24.1953 44.4583 24.8359 43.8594C25.4766 43.2552 25.8255 42.3021 25.8828 41ZM23.6562 41C24.1406 41 24.5859 40.8516 24.9922 40.5547C25.4036 40.2578 25.7031 39.8906 25.8906 39.4531V38.875C25.8906 37.9271 25.6849 37.1562 25.2734 36.5625C24.862 35.9688 24.3411 35.6719 23.7109 35.6719C23.0755 35.6719 22.5651 35.9167 22.1797 36.4062C21.7943 36.8906 21.6016 37.5312 21.6016 38.3281C21.6016 39.1042 21.7865 39.7448 22.1562 40.25C22.5312 40.75 23.0312 41 23.6562 41ZM29.5078 45.2422C29.5078 44.9922 29.5807 44.7839 29.7266 44.6172C29.8776 44.4505 30.1016 44.3672 30.3984 44.3672C30.6953 44.3672 30.9193 44.4505 31.0703 44.6172C31.2266 44.7839 31.3047 44.9922 31.3047 45.2422C31.3047 45.4818 31.2266 45.6823 31.0703 45.8438C30.9193 46.0052 30.6953 46.0859 30.3984 46.0859C30.1016 46.0859 29.8776 46.0052 29.7266 45.8438C29.5807 45.6823 29.5078 45.4818 29.5078 45.2422ZM40.6797 41.1484C40.6797 42.8411 40.3906 44.099 39.8125 44.9219C39.2344 45.7448 38.3307 46.1562 37.1016 46.1562C35.888 46.1562 34.9896 45.7552 34.4062 44.9531C33.8229 44.1458 33.5208 42.9427 33.5 41.3438V39.4141C33.5 37.7422 33.7891 36.5 34.3672 35.6875C34.9453 34.875 35.8516 34.4688 37.0859 34.4688C38.3099 34.4688 39.2109 34.862 39.7891 35.6484C40.3672 36.4297 40.6641 37.638 40.6797 39.2734V41.1484ZM39.2344 39.1719C39.2344 37.9479 39.0625 37.0573 38.7188 36.5C38.375 35.9375 37.8307 35.6562 37.0859 35.6562C36.3464 35.6562 35.8073 35.9349 35.4688 36.4922C35.1302 37.0495 34.9557 37.9062 34.9453 39.0625V41.375C34.9453 42.6042 35.1224 43.513 35.4766 44.1016C35.8359 44.6849 36.3776 44.9766 37.1016 44.9766C37.8151 44.9766 38.3438 44.7005 38.6875 44.1484C39.0365 43.5964 39.2188 42.7266 39.2344 41.5391V39.1719ZM49.6641 41.1484C49.6641 42.8411 49.375 44.099 48.7969 44.9219C48.2188 45.7448 47.3151 46.1562 46.0859 46.1562C44.8724 46.1562 43.974 45.7552 43.3906 44.9531C42.8073 44.1458 42.5052 42.9427 42.4844 41.3438V39.4141C42.4844 37.7422 42.7734 36.5 43.3516 35.6875C43.9297 34.875 44.8359 34.4688 46.0703 34.4688C47.2943 34.4688 48.1953 34.862 48.7734 35.6484C49.3516 36.4297 49.6484 37.638 49.6641 39.2734V41.1484ZM48.2188 39.1719C48.2188 37.9479 48.0469 37.0573 47.7031 36.5C47.3594 35.9375 46.8151 35.6562 46.0703 35.6562C45.3307 35.6562 44.7917 35.9349 44.4531 36.4922C44.1146 37.0495 43.9401 37.9062 43.9297 39.0625V41.375C43.9297 42.6042 44.1068 43.513 44.4609 44.1016C44.8203 44.6849 45.362 44.9766 46.0859 44.9766C46.7995 44.9766 47.3281 44.7005 47.6719 44.1484C48.0208 43.5964 48.2031 42.7266 48.2188 41.5391V39.1719Z" fill="#B45F4D"/>
<path d="M6.21387 6.20312V19H4.54395V6.20312H6.21387ZM10.3271 6.20312V7.5918H0.439453V6.20312H10.3271ZM20.584 11.7051V13.085H13.6582V11.7051H20.584ZM13.9219 6.20312V19H12.2256V6.20312H13.9219ZM22.0605 6.20312V19H20.373V6.20312H22.0605ZM33.2051 17.6201V19H26.4287V17.6201H33.2051ZM26.7715 6.20312V19H25.0752V6.20312H26.7715ZM32.3086 11.7051V13.085H26.4287V11.7051H32.3086ZM33.1172 6.20312V7.5918H26.4287V6.20312H33.1172ZM43.2334 19H40.5615L40.5791 17.6201H43.2334C44.1475 17.6201 44.9092 17.4297 45.5186 17.0488C46.1279 16.6621 46.585 16.123 46.8896 15.4316C47.2002 14.7344 47.3555 13.9199 47.3555 12.9883V12.2061C47.3555 11.4736 47.2676 10.8232 47.0918 10.2549C46.916 9.68066 46.6582 9.19727 46.3184 8.80469C45.9785 8.40625 45.5625 8.10449 45.0703 7.89941C44.584 7.69434 44.0244 7.5918 43.3916 7.5918H40.5088V6.20312H43.3916C44.2295 6.20312 44.9941 6.34375 45.6855 6.625C46.377 6.90039 46.9717 7.30176 47.4697 7.8291C47.9736 8.35059 48.3604 8.9834 48.6299 9.72754C48.8994 10.4658 49.0342 11.2979 49.0342 12.2236V12.9883C49.0342 13.9141 48.8994 14.749 48.6299 15.4932C48.3604 16.2314 47.9707 16.8613 47.4609 17.3828C46.957 17.9043 46.3477 18.3057 45.6328 18.5869C44.9238 18.8623 44.124 19 43.2334 19ZM41.4668 6.20312V19H39.7705V6.20312H41.4668ZM56.127 7.33691L51.8906 19H50.1592L55.0371 6.20312H56.1533L56.127 7.33691ZM59.6777 19L55.4326 7.33691L55.4062 6.20312H56.5225L61.418 19H59.6777ZM59.458 14.2627V15.6514H52.2686V14.2627H59.458ZM71.2617 17.6201V19H64.4854V17.6201H71.2617ZM64.8281 6.20312V19H63.1318V6.20312H64.8281ZM70.3652 11.7051V13.085H64.4854V11.7051H70.3652ZM71.1738 6.20312V7.5918H64.4854V6.20312H71.1738ZM76.8252 19H74.1533L74.1709 17.6201H76.8252C77.7393 17.6201 78.501 17.4297 79.1104 17.0488C79.7197 16.6621 80.1768 16.123 80.4814 15.4316C80.792 14.7344 80.9473 13.9199 80.9473 12.9883V12.2061C80.9473 11.4736 80.8594 10.8232 80.6836 10.2549C80.5078 9.68066 80.25 9.19727 79.9102 8.80469C79.5703 8.40625 79.1543 8.10449 78.6621 7.89941C78.1758 7.69434 77.6162 7.5918 76.9834 7.5918H74.1006V6.20312H76.9834C77.8213 6.20312 78.5859 6.34375 79.2773 6.625C79.9688 6.90039 80.5635 7.30176 81.0615 7.8291C81.5654 8.35059 81.9521 8.9834 82.2217 9.72754C82.4912 10.4658 82.626 11.2979 82.626 12.2236V12.9883C82.626 13.9141 82.4912 14.749 82.2217 15.4932C81.9521 16.2314 81.5625 16.8613 81.0527 17.3828C80.5488 17.9043 79.9395 18.3057 79.2246 18.5869C78.5156 18.8623 77.7158 19 76.8252 19ZM75.0586 6.20312V19H73.3623V6.20312H75.0586ZM85.1748 6.20312H89.4111C90.3721 6.20312 91.1836 6.34961 91.8457 6.64258C92.5137 6.93555 93.0205 7.36914 93.3662 7.94336C93.7178 8.51172 93.8936 9.21191 93.8936 10.0439C93.8936 10.6299 93.7734 11.166 93.5332 11.6523C93.2988 12.1328 92.959 12.543 92.5137 12.8828C92.0742 13.2168 91.5469 13.4658 90.9316 13.6299L90.457 13.8145H86.4756L86.458 12.4346H89.4639C90.0732 12.4346 90.5801 12.3291 90.9844 12.1182C91.3887 11.9014 91.6934 11.6113 91.8984 11.248C92.1035 10.8848 92.2061 10.4834 92.2061 10.0439C92.2061 9.55176 92.1094 9.12109 91.916 8.75195C91.7227 8.38281 91.418 8.09863 91.002 7.89941C90.5918 7.69434 90.0615 7.5918 89.4111 7.5918H86.8711V19H85.1748V6.20312ZM92.6543 19L89.543 13.1992L91.3096 13.1904L94.4648 18.8945V19H92.6543ZM104.396 17.6201V19H97.6201V17.6201H104.396ZM97.9629 6.20312V19H96.2666V6.20312H97.9629ZM103.5 11.7051V13.085H97.6201V11.7051H103.5ZM104.309 6.20312V7.5918H97.6201V6.20312H104.309ZM111.234 7.33691L106.998 19H105.267L110.145 6.20312H111.261L111.234 7.33691ZM114.785 19L110.54 7.33691L110.514 6.20312H111.63L116.525 19H114.785ZM114.565 14.2627V15.6514H107.376V14.2627H114.565ZM118.775 6.20312H120.419L124.611 16.6357L128.795 6.20312H130.447L125.244 19H123.961L118.775 6.20312ZM118.239 6.20312H119.689L119.927 14.0078V19H118.239V6.20312ZM129.524 6.20312H130.975V19H129.287V14.0078L129.524 6.20312ZM142.084 17.6201V19H135.308V17.6201H142.084ZM135.65 6.20312V19H133.954V6.20312H135.65ZM141.188 11.7051V13.085H135.308V11.7051H141.188ZM141.996 6.20312V7.5918H135.308V6.20312H141.996ZM144.185 6.20312H148.421C149.382 6.20312 150.193 6.34961 150.855 6.64258C151.523 6.93555 152.03 7.36914 152.376 7.94336C152.728 8.51172 152.903 9.21191 152.903 10.0439C152.903 10.6299 152.783 11.166 152.543 11.6523C152.309 12.1328 151.969 12.543 151.523 12.8828C151.084 13.2168 150.557 13.4658 149.941 13.6299L149.467 13.8145H145.485L145.468 12.4346H148.474C149.083 12.4346 149.59 12.3291 149.994 12.1182C150.398 11.9014 150.703 11.6113 150.908 11.248C151.113 10.8848 151.216 10.4834 151.216 10.0439C151.216 9.55176 151.119 9.12109 150.926 8.75195C150.732 8.38281 150.428 8.09863 150.012 7.89941C149.602 7.69434 149.071 7.5918 148.421 7.5918H145.881V19H144.185V6.20312ZM151.664 19L148.553 13.1992L150.319 13.1904L153.475 18.8945V19H151.664ZM166.562 15.7656C166.562 15.4668 166.515 15.2031 166.421 14.9746C166.333 14.7402 166.175 14.5293 165.946 14.3418C165.724 14.1543 165.413 13.9756 165.015 13.8057C164.622 13.6357 164.124 13.4629 163.521 13.2871C162.888 13.0996 162.316 12.8916 161.807 12.6631C161.297 12.4287 160.86 12.1621 160.497 11.8633C160.134 11.5645 159.855 11.2217 159.662 10.835C159.469 10.4482 159.372 10.0059 159.372 9.50781C159.372 9.00977 159.475 8.5498 159.68 8.12793C159.885 7.70605 160.178 7.33984 160.559 7.0293C160.945 6.71289 161.405 6.4668 161.938 6.29102C162.472 6.11523 163.066 6.02734 163.723 6.02734C164.684 6.02734 165.498 6.21191 166.166 6.58105C166.84 6.94434 167.353 7.42188 167.704 8.01367C168.056 8.59961 168.231 9.22656 168.231 9.89453H166.544C166.544 9.41406 166.441 8.98926 166.236 8.62012C166.031 8.24512 165.721 7.95215 165.305 7.74121C164.889 7.52441 164.361 7.41602 163.723 7.41602C163.119 7.41602 162.621 7.50684 162.229 7.68848C161.836 7.87012 161.543 8.11621 161.35 8.42676C161.162 8.7373 161.068 9.0918 161.068 9.49023C161.068 9.75977 161.124 10.0059 161.235 10.2285C161.353 10.4453 161.531 10.6475 161.771 10.835C162.018 11.0225 162.328 11.1953 162.703 11.3535C163.084 11.5117 163.538 11.6641 164.065 11.8105C164.792 12.0156 165.419 12.2441 165.946 12.4961C166.474 12.748 166.907 13.0322 167.247 13.3486C167.593 13.6592 167.848 14.0137 168.012 14.4121C168.182 14.8047 168.267 15.25 168.267 15.748C168.267 16.2695 168.161 16.7412 167.95 17.1631C167.739 17.585 167.438 17.9453 167.045 18.2441C166.652 18.543 166.181 18.7744 165.63 18.9385C165.085 19.0967 164.476 19.1758 163.802 19.1758C163.21 19.1758 162.627 19.0938 162.053 18.9297C161.484 18.7656 160.966 18.5195 160.497 18.1914C160.034 17.8633 159.662 17.459 159.381 16.9785C159.105 16.4922 158.968 15.9297 158.968 15.291H160.655C160.655 15.7305 160.74 16.1084 160.91 16.4248C161.08 16.7354 161.312 16.9932 161.604 17.1982C161.903 17.4033 162.24 17.5557 162.615 17.6553C162.996 17.749 163.392 17.7959 163.802 17.7959C164.394 17.7959 164.895 17.7139 165.305 17.5498C165.715 17.3857 166.025 17.1514 166.236 16.8467C166.453 16.542 166.562 16.1816 166.562 15.7656ZM178.559 17.6201V19H171.782V17.6201H178.559ZM172.125 6.20312V19H170.429V6.20312H172.125ZM177.662 11.7051V13.085H171.782V11.7051H177.662ZM178.471 6.20312V7.5918H171.782V6.20312H178.471ZM185.563 6.20312V19H183.894V6.20312H185.563ZM189.677 6.20312V7.5918H179.789V6.20312H189.677Z" fill="#B45F4D"/>
</svg>
