<svg width="380" height="67" viewBox="0 0 380 67" fill="none" xmlns="http://www.w3.org/2000/svg">
<path d="M9.97656 43.0703C9.97656 42.5911 9.80729 42.1875 9.46875 41.8594C9.13542 41.5312 8.57031 41.2344 7.77344 40.9688C6.66406 40.6302 5.85417 40.1901 5.34375 39.6484C4.83854 39.1016 4.58594 38.4089 4.58594 37.5703C4.58594 36.7161 4.83333 36.0156 5.32812 35.4688C5.82812 34.9219 6.51302 34.5964 7.38281 34.4922V32.7812H8.54688V34.5C9.42188 34.6198 10.1016 34.987 10.5859 35.6016C11.0755 36.2161 11.3203 37.0573 11.3203 38.125H9.88281C9.88281 37.3906 9.70833 36.8073 9.35938 36.375C9.01042 35.9427 8.53906 35.7266 7.94531 35.7266C7.32552 35.7266 6.85156 35.888 6.52344 36.2109C6.19531 36.5286 6.03125 36.974 6.03125 37.5469C6.03125 38.0781 6.20312 38.5026 6.54688 38.8203C6.89583 39.1328 7.46615 39.4193 8.25781 39.6797C9.05469 39.9349 9.67448 40.2188 10.1172 40.5312C10.5651 40.8385 10.8932 41.1979 11.1016 41.6094C11.3151 42.0208 11.4219 42.5026 11.4219 43.0547C11.4219 43.9349 11.1562 44.6432 10.625 45.1797C10.099 45.7161 9.35938 46.0339 8.40625 46.1328V47.625H7.25V46.1328C6.28125 46.0443 5.52083 45.7005 4.96875 45.1016C4.42188 44.4974 4.14844 43.6797 4.14844 42.6484H5.59375C5.59375 43.3724 5.78385 43.9297 6.16406 44.3203C6.54427 44.7109 7.08333 44.9062 7.78125 44.9062C8.46354 44.9062 9 44.7422 9.39062 44.4141C9.78125 44.0859 9.97656 43.638 9.97656 43.0703ZM20.6719 46H13.2188V44.9609L17.1562 40.5859C17.7396 39.9245 18.1406 39.388 18.3594 38.9766C18.5833 38.5599 18.6953 38.1302 18.6953 37.6875C18.6953 37.0938 18.5156 36.6068 18.1562 36.2266C17.7969 35.8464 17.3177 35.6562 16.7188 35.6562C16 35.6562 15.4401 35.862 15.0391 36.2734C14.6432 36.6797 14.4453 37.2474 14.4453 37.9766H13C13 36.9297 13.3359 36.0833 14.0078 35.4375C14.6849 34.7917 15.5885 34.4688 16.7188 34.4688C17.776 34.4688 18.612 34.7474 19.2266 35.3047C19.8411 35.8568 20.1484 36.5938 20.1484 37.5156C20.1484 38.6354 19.4349 39.9688 18.0078 41.5156L14.9609 44.8203H20.6719V46ZM28.3047 42.1797H29.8828V43.3594H28.3047V46H26.8516V43.3594H21.6719V42.5078L26.7656 34.625H28.3047V42.1797ZM23.3125 42.1797H26.8516V36.6016L26.6797 36.9141L23.3125 42.1797ZM31.3672 45.2422C31.3672 44.9922 31.4401 44.7839 31.5859 44.6172C31.737 44.4505 31.9609 44.3672 32.2578 44.3672C32.5547 44.3672 32.7786 44.4505 32.9297 44.6172C33.0859 44.7839 33.1641 44.9922 33.1641 45.2422C33.1641 45.4818 33.0859 45.6823 32.9297 45.8438C32.7786 46.0052 32.5547 46.0859 32.2578 46.0859C31.9609 46.0859 31.737 46.0052 31.5859 45.8438C31.4401 45.6823 31.3672 45.4818 31.3672 45.2422ZM42.5391 41.1484C42.5391 42.8411 42.25 44.099 41.6719 44.9219C41.0938 45.7448 40.1901 46.1562 38.9609 46.1562C37.7474 46.1562 36.849 45.7552 36.2656 44.9531C35.6823 44.1458 35.3802 42.9427 35.3594 41.3438V39.4141C35.3594 37.7422 35.6484 36.5 36.2266 35.6875C36.8047 34.875 37.7109 34.4688 38.9453 34.4688C40.1693 34.4688 41.0703 34.862 41.6484 35.6484C42.2266 36.4297 42.5234 37.638 42.5391 39.2734V41.1484ZM41.0938 39.1719C41.0938 37.9479 40.9219 37.0573 40.5781 36.5C40.2344 35.9375 39.6901 35.6562 38.9453 35.6562C38.2057 35.6562 37.6667 35.9349 37.3281 36.4922C36.9896 37.0495 36.8151 37.9062 36.8047 39.0625V41.375C36.8047 42.6042 36.9818 43.513 37.3359 44.1016C37.6953 44.6849 38.237 44.9766 38.9609 44.9766C39.6745 44.9766 40.2031 44.7005 40.5469 44.1484C40.8958 43.5964 41.0781 42.7266 41.0938 41.5391V39.1719ZM51.5234 41.1484C51.5234 42.8411 51.2344 44.099 50.6562 44.9219C50.0781 45.7448 49.1745 46.1562 47.9453 46.1562C46.7318 46.1562 45.8333 45.7552 45.25 44.9531C44.6667 44.1458 44.3646 42.9427 44.3438 41.3438V39.4141C44.3438 37.7422 44.6328 36.5 45.2109 35.6875C45.7891 34.875 46.6953 34.4688 47.9297 34.4688C49.1536 34.4688 50.0547 34.862 50.6328 35.6484C51.2109 36.4297 51.5078 37.638 51.5234 39.2734V41.1484ZM50.0781 39.1719C50.0781 37.9479 49.9062 37.0573 49.5625 36.5C49.2188 35.9375 48.6745 35.6562 47.9297 35.6562C47.1901 35.6562 46.651 35.9349 46.3125 36.4922C45.974 37.0495 45.7995 37.9062 45.7891 39.0625V41.375C45.7891 42.6042 45.9661 43.513 46.3203 44.1016C46.6797 44.6849 47.2214 44.9766 47.9453 44.9766C48.6589 44.9766 49.1875 44.7005 49.5312 44.1484C49.8802 43.5964 50.0625 42.7266 50.0781 41.5391V39.1719ZM59.4531 35.5V37.5469H61.0312V38.6641H59.4531V43.9062C59.4531 44.2448 59.5234 44.5 59.6641 44.6719C59.8047 44.8385 60.0443 44.9219 60.3828 44.9219C60.5495 44.9219 60.7786 44.8906 61.0703 44.8281V46C60.6901 46.1042 60.3203 46.1562 59.9609 46.1562C59.3151 46.1562 58.8281 45.9609 58.5 45.5703C58.1719 45.1797 58.0078 44.625 58.0078 43.9062V38.6641H56.4688V37.5469H58.0078V35.5H59.4531ZM62.1875 41.6953C62.1875 40.8672 62.349 40.1224 62.6719 39.4609C63 38.7995 63.4531 38.2891 64.0312 37.9297C64.6146 37.5703 65.2786 37.3906 66.0234 37.3906C67.1745 37.3906 68.1042 37.7891 68.8125 38.5859C69.526 39.3828 69.8828 40.4427 69.8828 41.7656V41.8672C69.8828 42.6901 69.724 43.4297 69.4062 44.0859C69.0938 44.737 68.6432 45.2448 68.0547 45.6094C67.4714 45.974 66.7995 46.1562 66.0391 46.1562C64.8932 46.1562 63.9635 45.7578 63.25 44.9609C62.5417 44.1641 62.1875 43.1094 62.1875 41.7969V41.6953ZM63.6406 41.8672C63.6406 42.8047 63.8568 43.5573 64.2891 44.125C64.7266 44.6927 65.3099 44.9766 66.0391 44.9766C66.7734 44.9766 67.3568 44.6901 67.7891 44.1172C68.2214 43.5391 68.4375 42.7318 68.4375 41.6953C68.4375 40.7682 68.2161 40.0182 67.7734 39.4453C67.3359 38.8672 66.7526 38.5781 66.0234 38.5781C65.3099 38.5781 64.7344 38.862 64.2969 39.4297C63.8594 39.9974 63.6406 40.8099 63.6406 41.8672ZM81.2578 43.0703C81.2578 42.5911 81.0885 42.1875 80.75 41.8594C80.4167 41.5312 79.8516 41.2344 79.0547 40.9688C77.9453 40.6302 77.1354 40.1901 76.625 39.6484C76.1198 39.1016 75.8672 38.4089 75.8672 37.5703C75.8672 36.7161 76.1146 36.0156 76.6094 35.4688C77.1094 34.9219 77.7943 34.5964 78.6641 34.4922V32.7812H79.8281V34.5C80.7031 34.6198 81.3828 34.987 81.8672 35.6016C82.3568 36.2161 82.6016 37.0573 82.6016 38.125H81.1641C81.1641 37.3906 80.9896 36.8073 80.6406 36.375C80.2917 35.9427 79.8203 35.7266 79.2266 35.7266C78.6068 35.7266 78.1328 35.888 77.8047 36.2109C77.4766 36.5286 77.3125 36.974 77.3125 37.5469C77.3125 38.0781 77.4844 38.5026 77.8281 38.8203C78.1771 39.1328 78.7474 39.4193 79.5391 39.6797C80.3359 39.9349 80.9557 40.2188 81.3984 40.5312C81.8464 40.8385 82.1745 41.1979 82.3828 41.6094C82.5964 42.0208 82.7031 42.5026 82.7031 43.0547C82.7031 43.9349 82.4375 44.6432 81.9062 45.1797C81.3802 45.7161 80.6406 46.0339 79.6875 46.1328V47.625H78.5312V46.1328C77.5625 46.0443 76.8021 45.7005 76.25 45.1016C75.7031 44.4974 75.4297 43.6797 75.4297 42.6484H76.875C76.875 43.3724 77.0651 43.9297 77.4453 44.3203C77.8255 44.7109 78.3646 44.9062 79.0625 44.9062C79.7448 44.9062 80.2812 44.7422 80.6719 44.4141C81.0625 44.0859 81.2578 43.638 81.2578 43.0703ZM90.1719 34.6172V35.8438H89.9062C88.7812 35.8646 87.8854 36.1979 87.2188 36.8438C86.5521 37.4896 86.1667 38.3984 86.0625 39.5703C86.6615 38.8828 87.4792 38.5391 88.5156 38.5391C89.5052 38.5391 90.2943 38.888 90.8828 39.5859C91.4766 40.2839 91.7734 41.1849 91.7734 42.2891C91.7734 43.4609 91.4531 44.3984 90.8125 45.1016C90.1771 45.8047 89.3229 46.1562 88.25 46.1562C87.1615 46.1562 86.2786 45.7396 85.6016 44.9062C84.9245 44.0677 84.5859 42.9896 84.5859 41.6719V41.1172C84.5859 39.0234 85.0312 37.4245 85.9219 36.3203C86.8177 35.2109 88.1484 34.6432 89.9141 34.6172H90.1719ZM88.2734 39.7422C87.7786 39.7422 87.3229 39.8906 86.9062 40.1875C86.4896 40.4844 86.2005 40.8568 86.0391 41.3047V41.8359C86.0391 42.7734 86.25 43.5286 86.6719 44.1016C87.0938 44.6745 87.6198 44.9609 88.25 44.9609C88.901 44.9609 89.4115 44.7214 89.7812 44.2422C90.1562 43.763 90.3438 43.1354 90.3438 42.3594C90.3438 41.5781 90.1536 40.9479 89.7734 40.4688C89.3984 39.9844 88.8984 39.7422 88.2734 39.7422ZM99.5859 42.1797H101.164V43.3594H99.5859V46H98.1328V43.3594H92.9531V42.5078L98.0469 34.625H99.5859V42.1797ZM94.5938 42.1797H98.1328V36.6016L97.9609 36.9141L94.5938 42.1797ZM102.648 45.2422C102.648 44.9922 102.721 44.7839 102.867 44.6172C103.018 44.4505 103.242 44.3672 103.539 44.3672C103.836 44.3672 104.06 44.4505 104.211 44.6172C104.367 44.7839 104.445 44.9922 104.445 45.2422C104.445 45.4818 104.367 45.6823 104.211 45.8438C104.06 46.0052 103.836 46.0859 103.539 46.0859C103.242 46.0859 103.018 46.0052 102.867 45.8438C102.721 45.6823 102.648 45.4818 102.648 45.2422ZM113.82 41.1484C113.82 42.8411 113.531 44.099 112.953 44.9219C112.375 45.7448 111.471 46.1562 110.242 46.1562C109.029 46.1562 108.13 45.7552 107.547 44.9531C106.964 44.1458 106.661 42.9427 106.641 41.3438V39.4141C106.641 37.7422 106.93 36.5 107.508 35.6875C108.086 34.875 108.992 34.4688 110.227 34.4688C111.451 34.4688 112.352 34.862 112.93 35.6484C113.508 36.4297 113.805 37.638 113.82 39.2734V41.1484ZM112.375 39.1719C112.375 37.9479 112.203 37.0573 111.859 36.5C111.516 35.9375 110.971 35.6562 110.227 35.6562C109.487 35.6562 108.948 35.9349 108.609 36.4922C108.271 37.0495 108.096 37.9062 108.086 39.0625V41.375C108.086 42.6042 108.263 43.513 108.617 44.1016C108.977 44.6849 109.518 44.9766 110.242 44.9766C110.956 44.9766 111.484 44.7005 111.828 44.1484C112.177 43.5964 112.359 42.7266 112.375 41.5391V39.1719ZM122.805 41.1484C122.805 42.8411 122.516 44.099 121.938 44.9219C121.359 45.7448 120.456 46.1562 119.227 46.1562C118.013 46.1562 117.115 45.7552 116.531 44.9531C115.948 44.1458 115.646 42.9427 115.625 41.3438V39.4141C115.625 37.7422 115.914 36.5 116.492 35.6875C117.07 34.875 117.977 34.4688 119.211 34.4688C120.435 34.4688 121.336 34.862 121.914 35.6484C122.492 36.4297 122.789 37.638 122.805 39.2734V41.1484ZM121.359 39.1719C121.359 37.9479 121.188 37.0573 120.844 36.5C120.5 35.9375 119.956 35.6562 119.211 35.6562C118.471 35.6562 117.932 35.9349 117.594 36.4922C117.255 37.0495 117.081 37.9062 117.07 39.0625V41.375C117.07 42.6042 117.247 43.513 117.602 44.1016C117.961 44.6849 118.503 44.9766 119.227 44.9766C119.94 44.9766 120.469 44.7005 120.812 44.1484C121.161 43.5964 121.344 42.7266 121.359 41.5391V39.1719Z" fill="#B45F4D"/>
<path d="M9.21094 14.9307H10.8984C10.8105 15.7393 10.5791 16.4629 10.2041 17.1016C9.8291 17.7402 9.29883 18.2471 8.61328 18.6221C7.92773 18.9912 7.07227 19.1758 6.04688 19.1758C5.29688 19.1758 4.61426 19.0352 3.99902 18.7539C3.38965 18.4727 2.86523 18.0742 2.42578 17.5586C1.98633 17.0371 1.64648 16.4131 1.40625 15.6865C1.17188 14.9541 1.05469 14.1396 1.05469 13.2432V11.9688C1.05469 11.0723 1.17188 10.2607 1.40625 9.53418C1.64648 8.80176 1.98926 8.1748 2.43457 7.65332C2.88574 7.13184 3.42773 6.73047 4.06055 6.44922C4.69336 6.16797 5.40527 6.02734 6.19629 6.02734C7.16309 6.02734 7.98047 6.20898 8.64844 6.57227C9.31641 6.93555 9.83496 7.43945 10.2041 8.08398C10.5791 8.72266 10.8105 9.46387 10.8984 10.3076H9.21094C9.12891 9.70996 8.97656 9.19727 8.75391 8.76953C8.53125 8.33594 8.21484 8.00195 7.80469 7.76758C7.39453 7.5332 6.8584 7.41602 6.19629 7.41602C5.62793 7.41602 5.12695 7.52441 4.69336 7.74121C4.26562 7.95801 3.90527 8.26562 3.6123 8.66406C3.3252 9.0625 3.1084 9.54004 2.96191 10.0967C2.81543 10.6533 2.74219 11.2715 2.74219 11.9512V13.2432C2.74219 13.8701 2.80664 14.459 2.93555 15.0098C3.07031 15.5605 3.27246 16.0439 3.54199 16.46C3.81152 16.876 4.1543 17.2041 4.57031 17.4443C4.98633 17.6787 5.47852 17.7959 6.04688 17.7959C6.76758 17.7959 7.3418 17.6816 7.76953 17.4531C8.19727 17.2246 8.51953 16.8965 8.73633 16.4688C8.95898 16.041 9.11719 15.5283 9.21094 14.9307ZM23.0625 12.1973V13.0059C23.0625 13.9668 22.9424 14.8281 22.7021 15.5898C22.4619 16.3516 22.1162 16.999 21.665 17.5322C21.2139 18.0654 20.6719 18.4727 20.0391 18.7539C19.4121 19.0352 18.709 19.1758 17.9297 19.1758C17.1738 19.1758 16.4795 19.0352 15.8467 18.7539C15.2197 18.4727 14.6748 18.0654 14.2119 17.5322C13.7549 16.999 13.4004 16.3516 13.1484 15.5898C12.8965 14.8281 12.7705 13.9668 12.7705 13.0059V12.1973C12.7705 11.2363 12.8936 10.3779 13.1396 9.62207C13.3916 8.86035 13.7461 8.21289 14.2031 7.67969C14.6602 7.14063 15.2021 6.73047 15.8291 6.44922C16.4619 6.16797 17.1562 6.02734 17.9121 6.02734C18.6914 6.02734 19.3945 6.16797 20.0215 6.44922C20.6543 6.73047 21.1963 7.14063 21.6475 7.67969C22.1045 8.21289 22.4531 8.86035 22.6934 9.62207C22.9395 10.3779 23.0625 11.2363 23.0625 12.1973ZM21.3838 13.0059V12.1797C21.3838 11.418 21.3047 10.7441 21.1465 10.1582C20.9941 9.57227 20.7686 9.08008 20.4697 8.68164C20.1709 8.2832 19.8047 7.98145 19.3711 7.77637C18.9434 7.57129 18.457 7.46875 17.9121 7.46875C17.3848 7.46875 16.9072 7.57129 16.4795 7.77637C16.0576 7.98145 15.6943 8.2832 15.3896 8.68164C15.0908 9.08008 14.8594 9.57227 14.6953 10.1582C14.5312 10.7441 14.4492 11.418 14.4492 12.1797V13.0059C14.4492 13.7734 14.5312 14.4531 14.6953 15.0449C14.8594 15.6309 15.0938 16.126 15.3984 16.5303C15.709 16.9287 16.0752 17.2305 16.4971 17.4355C16.9248 17.6406 17.4023 17.7432 17.9297 17.7432C18.4805 17.7432 18.9697 17.6406 19.3975 17.4355C19.8252 17.2305 20.1855 16.9287 20.4785 16.5303C20.7773 16.126 21.0029 15.6309 21.1553 15.0449C21.3076 14.4531 21.3838 13.7734 21.3838 13.0059ZM35.4463 6.20312V19H33.7412L27.2988 9.12988V19H25.6025V6.20312H27.2988L33.7676 16.0996V6.20312H35.4463ZM41.915 19H39.2432L39.2607 17.6201H41.915C42.8291 17.6201 43.5908 17.4297 44.2002 17.0488C44.8096 16.6621 45.2666 16.123 45.5713 15.4316C45.8818 14.7344 46.0371 13.9199 46.0371 12.9883V12.2061C46.0371 11.4736 45.9492 10.8232 45.7734 10.2549C45.5977 9.68066 45.3398 9.19727 45 8.80469C44.6602 8.40625 44.2441 8.10449 43.752 7.89941C43.2656 7.69434 42.7061 7.5918 42.0732 7.5918H39.1904V6.20312H42.0732C42.9111 6.20312 43.6758 6.34375 44.3672 6.625C45.0586 6.90039 45.6533 7.30176 46.1514 7.8291C46.6553 8.35059 47.042 8.9834 47.3115 9.72754C47.5811 10.4658 47.7158 11.2979 47.7158 12.2236V12.9883C47.7158 13.9141 47.5811 14.749 47.3115 15.4932C47.042 16.2314 46.6523 16.8613 46.1426 17.3828C45.6387 17.9043 45.0293 18.3057 44.3145 18.5869C43.6055 18.8623 42.8057 19 41.915 19ZM40.1484 6.20312V19H38.4521V6.20312H40.1484ZM52.084 6.20312V19H50.3877V6.20312H52.084ZM59.6338 6.20312V19H57.9639V6.20312H59.6338ZM63.7471 6.20312V7.5918H53.8594V6.20312H63.7471ZM67.4648 6.20312V19H65.7686V6.20312H67.4648ZM80.4023 12.1973V13.0059C80.4023 13.9668 80.2822 14.8281 80.042 15.5898C79.8018 16.3516 79.4561 16.999 79.0049 17.5322C78.5537 18.0654 78.0117 18.4727 77.3789 18.7539C76.752 19.0352 76.0488 19.1758 75.2695 19.1758C74.5137 19.1758 73.8193 19.0352 73.1865 18.7539C72.5596 18.4727 72.0146 18.0654 71.5518 17.5322C71.0947 16.999 70.7402 16.3516 70.4883 15.5898C70.2363 14.8281 70.1104 13.9668 70.1104 13.0059V12.1973C70.1104 11.2363 70.2334 10.3779 70.4795 9.62207C70.7314 8.86035 71.0859 8.21289 71.543 7.67969C72 7.14063 72.542 6.73047 73.1689 6.44922C73.8018 6.16797 74.4961 6.02734 75.252 6.02734C76.0312 6.02734 76.7344 6.16797 77.3613 6.44922C77.9941 6.73047 78.5361 7.14063 78.9873 7.67969C79.4443 8.21289 79.793 8.86035 80.0332 9.62207C80.2793 10.3779 80.4023 11.2363 80.4023 12.1973ZM78.7236 13.0059V12.1797C78.7236 11.418 78.6445 10.7441 78.4863 10.1582C78.334 9.57227 78.1084 9.08008 77.8096 8.68164C77.5107 8.2832 77.1445 7.98145 76.7109 7.77637C76.2832 7.57129 75.7969 7.46875 75.252 7.46875C74.7246 7.46875 74.2471 7.57129 73.8193 7.77637C73.3975 7.98145 73.0342 8.2832 72.7295 8.68164C72.4307 9.08008 72.1992 9.57227 72.0352 10.1582C71.8711 10.7441 71.7891 11.418 71.7891 12.1797V13.0059C71.7891 13.7734 71.8711 14.4531 72.0352 15.0449C72.1992 15.6309 72.4336 16.126 72.7383 16.5303C73.0488 16.9287 73.415 17.2305 73.8369 17.4355C74.2646 17.6406 74.7422 17.7432 75.2695 17.7432C75.8203 17.7432 76.3096 17.6406 76.7373 17.4355C77.165 17.2305 77.5254 16.9287 77.8184 16.5303C78.1172 16.126 78.3428 15.6309 78.4951 15.0449C78.6475 14.4531 78.7236 13.7734 78.7236 13.0059ZM92.7861 6.20312V19H91.0811L84.6387 9.12988V19H82.9424V6.20312H84.6387L91.1074 16.0996V6.20312H92.7861ZM103.922 17.6201V19H97.1455V17.6201H103.922ZM97.4883 6.20312V19H95.792V6.20312H97.4883ZM103.025 11.7051V13.085H97.1455V11.7051H103.025ZM103.834 6.20312V7.5918H97.1455V6.20312H103.834ZM106.022 6.20312H110.259C111.22 6.20312 112.031 6.34961 112.693 6.64258C113.361 6.93555 113.868 7.36914 114.214 7.94336C114.565 8.51172 114.741 9.21191 114.741 10.0439C114.741 10.6299 114.621 11.166 114.381 11.6523C114.146 12.1328 113.807 12.543 113.361 12.8828C112.922 13.2168 112.395 13.4658 111.779 13.6299L111.305 13.8145H107.323L107.306 12.4346H110.312C110.921 12.4346 111.428 12.3291 111.832 12.1182C112.236 11.9014 112.541 11.6113 112.746 11.248C112.951 10.8848 113.054 10.4834 113.054 10.0439C113.054 9.55176 112.957 9.12109 112.764 8.75195C112.57 8.38281 112.266 8.09863 111.85 7.89941C111.439 7.69434 110.909 7.5918 110.259 7.5918H107.719V19H106.022V6.20312ZM113.502 19L110.391 13.1992L112.157 13.1904L115.312 18.8945V19H113.502Z" fill="#B45F4D"/>
</svg>
